<?xml version="1.0" standalone="no"?>
<!DOCTYPE svg PUBLIC "-//W3C//DTD SVG 20010904//EN"
 "http://www.w3.org/TR/2001/REC-SVG-20010904/DTD/svg10.dtd">
<svg version="1.0" xmlns="http://www.w3.org/2000/svg"
 width="220.000000pt" height="206.000000pt" viewBox="0 0 220.000000 206.000000"
 preserveAspectRatio="xMidYMid meet">

<g transform="translate(0.000000,206.000000) scale(0.100000,-0.100000)"
fill="#000000" stroke="none">
<path d="M1090 1689 c-108 -18 -189 -80 -233 -178 -25 -55 -27 -152 -5 -221
l14 -45 29 55 c43 85 98 160 152 212 52 48 133 96 133 79 0 -6 -10 -16 -22
-22 -77 -40 -172 -149 -230 -262 -53 -106 -54 -101 11 -107 188 -16 262 2 334
79 64 69 82 132 74 269 -3 57 -2 114 3 128 l10 24 -108 -1 c-59 -1 -132 -5
-162 -10z"/>
<path d="M353 1483 c-44 -3 -63 -8 -63 -17 0 -20 48 -162 66 -199 90 -177 243
-234 378 -142 l37 25 19 -42 c11 -24 20 -36 20 -27 0 9 -15 39 -33 65 -30 44
-49 57 -182 124 -133 67 -234 134 -222 147 3 2 27 -11 54 -30 59 -42 130 -78
219 -112 37 -14 82 -37 100 -50 18 -14 35 -25 38 -25 12 0 6 101 -7 133 -22
51 -65 96 -121 124 -43 23 -65 27 -146 28 -52 1 -123 0 -157 -2z"/>
<path d="M1306 1271 c-11 -12 -13 -21 -7 -25 6 -4 8 -13 5 -20 -10 -25 17 -28
37 -5 24 27 24 32 1 53 -18 15 -20 15 -36 -3z"/>
<path d="M1460 1270 c0 -5 3 -9 8 -8 12 2 46 -15 66 -34 14 -12 16 -21 9 -30
-18 -22 -19 -52 -3 -65 13 -11 13 -14 1 -22 -7 -5 -10 -14 -7 -20 12 -19 26
-12 26 12 0 12 9 30 19 39 17 14 20 14 35 0 11 -11 9 -4 -5 26 -15 29 -38 52
-77 77 -59 37 -72 41 -72 25z"/>
<path d="M1480 1230 c0 -6 7 -10 15 -10 8 0 15 2 15 4 0 2 -7 6 -15 10 -8 3
-15 1 -15 -4z"/>
<path d="M1201 1166 c-24 -38 -44 -48 -39 -18 3 18 4 18 -100 14 -45 -2 -50
-5 -70 -41 -20 -36 -22 -47 -15 -118 7 -68 11 -79 32 -89 13 -7 34 -25 47 -40
17 -18 24 -22 24 -12 0 9 -7 19 -16 22 -11 4 -13 12 -8 28 6 20 5 21 -9 10
-13 -11 -17 -10 -26 7 -26 47 7 87 64 78 19 -3 35 -2 35 3 0 5 9 12 20 15 11
3 20 12 20 20 0 12 45 49 65 51 6 1 14 2 19 3 5 0 3 8 -4 16 -20 24 -2 32 29
14 l28 -16 -14 29 c-9 16 -23 32 -32 36 -9 3 -19 10 -22 15 -4 5 -16 -7 -28
-27z"/>
<path d="M1480 1191 c0 -5 7 -12 16 -15 14 -5 15 -4 4 9 -14 17 -20 19 -20 6z"/>
<path d="M835 1068 c-10 -35 -20 -109 -23 -165 -4 -83 -1 -113 16 -170 43
-141 146 -254 282 -309 52 -22 84 -27 165 -30 l100 -2 -95 7 c-52 5 -114 15
-137 23 -117 42 -213 129 -271 247 -35 71 -37 81 -40 190 -3 79 1 140 12 190
9 41 14 76 12 78 -2 2 -11 -25 -21 -59z"/>
<path d="M1594 1075 c-4 -8 -13 -15 -21 -15 -11 0 -14 -7 -10 -22 4 -13 0 -29
-10 -40 -11 -12 -13 -26 -9 -45 4 -15 10 -41 13 -58 6 -31 29 -65 46 -65 5 0
22 9 38 21 44 31 59 13 59 -72 0 -37 -5 -80 -10 -95 -6 -15 -9 -29 -6 -31 7
-8 45 121 52 177 7 65 -7 152 -36 217 -19 44 -21 45 -39 29 -16 -15 -19 -15
-31 -1 -16 19 -29 19 -36 0z"/>
<path d="M1141 831 c-6 -10 -7 -21 -4 -25 3 -3 -1 -14 -9 -23 -34 -38 -27 -72
26 -132 43 -48 45 -53 44 -111 -1 -43 4 -66 15 -77 13 -14 16 -13 22 6 4 12
24 33 46 47 22 14 42 31 45 39 3 8 21 23 40 34 19 11 34 26 34 33 0 7 7 26 15
42 20 37 13 56 -19 56 -36 0 -74 20 -79 41 -3 11 -21 26 -40 34 -20 8 -39 19
-42 25 -4 6 -11 8 -16 5 -5 -4 -19 1 -31 9 -29 20 -35 20 -47 -3z"/>
<path d="M1659 573 c-13 -16 -12 -17 4 -4 16 13 21 21 13 21 -2 0 -10 -8 -17
-17z"/>
<path d="M1565 484 c-18 -16 -22 -22 -9 -15 18 9 53 42 43 41 -2 -1 -17 -12
-34 -26z"/>
<path d="M1500 445 c-14 -8 -20 -14 -14 -15 5 0 19 7 30 15 24 18 16 19 -16 0z"/>
<path d="M1435 420 c-13 -6 -15 -9 -5 -9 8 0 22 4 30 9 18 12 2 12 -25 0z"/>
<path d="M1388 403 c7 -3 16 -2 19 1 4 3 -2 6 -13 5 -11 0 -14 -3 -6 -6z"/>
</g>
</svg>
